<?xml version="1.0" standalone="no"?><!DOCTYPE svg PUBLIC "-//W3C//DTD SVG 1.1//EN" "http://www.w3.org/Graphics/SVG/1.1/DTD/svg11.dtd"><svg t="1561435055432" class="icon" viewBox="0 0 1024 1024" version="1.1" xmlns="http://www.w3.org/2000/svg" p-id="10182" xmlns:xlink="http://www.w3.org/1999/xlink" width="48" height="48"><defs><style type="text/css"></style></defs><path d="M218.46273 758.568996v8.229741c0 16.546848 0.314512 33.076222-0.454296 49.62307 17.752478-0.139783 35.504957-0.104837 53.22249 0-0.314512 39.453835 0.174729 78.960089-0.17473 118.44887-10.326491-0.209675-20.652982-0.174729-30.979472 0 0 8.037539 0.104837 16.110025 0 24.147564l17.228291-0.157256c-0.104837 5.626278-0.209675 11.235082-0.279567 16.86136 7.723027 0 15.463527 0 23.169081 0.174729 0.104837-11.933999 0.139783-23.867998-0.104837-35.801997 39.908131 0.384404 79.816261-0.104837 119.706919 0 0.104837 20.565617 0.244621 41.096289-0.104837 61.62696 108.419418 0 216.821363-0.279567 325.188362 0.209675-0.139783 7.303677-0.192202 14.747138-0.471768 22.068288q-174.082621-0.401877-348.287552-0.174729c-0.174729-20.076376 0.209675-40.187697-0.139784-60.211654-22.889515 0.244621-45.796502 0.244621-68.686016 0.139783v38.178312l19.220203-0.279566-0.733863-18.573706c8.124904-0.41935 16.284754-0.629025 24.462077-0.559133-0.209675 13.786127-0.29704 27.554782-0.524187 41.375856-23.134135 0-46.268271-0.314512-69.384933 0 0-6.989165-0.104837-13.978329-0.139784-20.967495H257.095338c0 6.884327 0 13.821073 0.139783 20.740347h-62.902483c-0.139783-21.613992 0-43.227984-0.139783-64.824503h24.147564c-0.104837-8.072485-0.139783-16.144971-0.174729-24.252402H194.157909c-0.104837-22.714785 0.279567-45.551881-0.209675-68.301613 10.815732 0 21.666411 0 32.482144-0.104837 0.209675 9.802304 0.104837 19.62208-0.279567 29.406911l-11.794216-0.454296 0.104838 15.725621h31.154202c-0.104837-22.959406-0.244621-45.901339 0-68.8258H193.98318q0.349458-26.017166 0.227148-51.999386H194.018126v-23.134135-8.352052h0.087365c0.174729-122.799625 0.192202-552.05665-0.122311-576.501254 17.193345 0.104837 34.421636 0 51.632455 0-0.244621-22.92446-0.104837-45.848921 0-68.8258H214.461433c0 5.241874 0 10.483747-0.104838 15.725621l11.794216-0.454296c0.384404 9.784831 0.489242 19.604607 0.279567 29.406911-10.815732-0.139783-21.666411-0.174729-32.482144-0.104838 0.489242-22.714785 0.104837-45.551881 0.209675-68.301612 8.020067-0.104837 16.005187-0.104837 24.007781 0 0-8.107431 0-16.179916 0.174729-24.252402H194.122963C194.262747 43.629861 194.122963 22.015869 194.262747 0.401877h62.902483c0 6.989165-0.104837 13.856019-0.139784 20.740346h23.09919c0-6.989165 0-13.978329 0.139783-20.967494C303.381081 0.54166 326.515217 0.29704 349.649352 0.174729c0.227148 13.821073 0.314512 27.607201 0.524187 41.375855-8.142377 0.087365-16.302227-0.139783-24.462076-0.54166l0.733862-18.591178-19.220203-0.279567v38.178313c22.889515-0.104837 45.796502-0.104837 68.686017 0.139783 0.349458-20.04143 0-40.187697 0.139783-60.211654q174.117567 0.157256 348.235133 0c0.29704 7.32115 0.436823 14.869448 0.576606 22.173125-108.332054 0.489242-216.786418 0-325.205835 0 0.349458 20.530671 0.209675 41.061343 0.104837 61.62696-39.890658 0.139783-79.798788-0.349458-119.706919 0 0.244621-11.933999 0.209675-23.867998 0.104838-35.801996-7.705554 0.139783-15.446054 0.174729-23.169082 0.174729 0 5.626278 0.174729 11.235082 0.279567 16.878833l-17.228291-0.174729v24.147564c10.326491 0.139783 20.652982 0.174729 30.979473 0 0.349458 39.488781-0.139783 78.995035 0.174729 118.448869H217.973488c0.821227 16.581793 0.489242 431.545977 0.489242 550.85102zM214.374068 46.582783c8.334579 0.244621 16.704104 0 25.073629-0.384404q-0.41935-11.951472-0.279567-23.902943c-8.264687 0-16.56432 0.104837-24.829007 0 0.034946 8.142377 0.069892 16.214862 0.034945 24.287347z m0 930.729596v24.217456h24.829008q-0.157256-11.951472 0.279567-23.902943c-8.404471-0.384404-16.773995-0.559133-25.108575-0.314513z" fill="#EF5350" p-id="10183"></path></svg>