<?xml version="1.0" standalone="no"?><!DOCTYPE svg PUBLIC "-//W3C//DTD SVG 1.1//EN" "http://www.w3.org/Graphics/SVG/1.1/DTD/svg11.dtd"><svg t="1561435043646" class="icon" viewBox="0 0 1024 1024" version="1.1" xmlns="http://www.w3.org/2000/svg" p-id="5594" xmlns:xlink="http://www.w3.org/1999/xlink" width="48" height="48"><defs><style type="text/css"></style></defs><path d="M662.831206 758.515288v8.233166c0 16.553547-0.313977 33.141981 0.453521 49.625756-17.757125-0.139545-35.514249-0.104659-53.236487 0 0.313977 39.456401-0.174431 78.982574 0.174431 118.473861 10.326344-0.209318 20.652687-0.174431 30.996474 0 0 8.041291-0.122102 16.117469 0 24.141317l-17.23383-0.156989c0.104659 5.634137 0.209318 11.25083 0.27909 16.867524-7.727315 0-15.472072 0-23.181943 0.174432-0.104659-11.931113-0.139545-23.862226 0.104659-35.810783-39.909922 0.383749-79.819845-0.104659-119.729768 0-0.104659 20.582915-0.244204 41.1135 0.104659 61.644085-108.426608 0-216.853215-0.27909-325.227493 0.209318 0.139545 7.308679 0.191875 14.756903 0.470965 22.065582q174.10006-0.383749 348.339664-0.174432c0.174431-20.077063-0.209318-40.11924 0.139545-60.213746 22.88541 0.244204 45.805706 0.244204 68.691117 0.139545v38.183051l-19.187463-0.279091 0.732612-18.576952c-8.128507-0.418636-16.274457-0.627953-24.420407-0.558181 0.209318 13.780087 0.296534 27.560174 0.523295 41.375147 23.129614 0 46.276671-0.313977 69.388842 0 0-6.977259 0.104659-13.954518 0.139545-20.931778h23.024956c0 6.890043 0 13.832416-0.139546 20.739903h62.934878c0.139545-21.61206 0-43.224121 0.139545-64.836181h-24.158759c0.104659-8.058734 0.139545-16.134912 0.174431-24.245975h24.001772c0.104659-22.676092-0.27909-45.561502 0.209317-68.324811-10.814752 0-21.66439 0-32.479141-0.104659q-0.313977 14.722017 0.27909 29.426591l11.791568-0.453522-0.104659 15.698833H635.672224c0.104659-22.955183 0.244204-45.910365 0-68.830661h51.631718q-0.348863-26.04262-0.226761-52.015468h0.191875v-31.397666c-0.174431-122.817205-0.191875-552.145405 0.122102-576.600698-17.181501 0.104659-34.415331 0-51.631718 0 0.244204-22.920296 0.104659-45.858036 0-68.830662h31.153462c0 5.232944 0 10.465889 0.104659 15.698833l-11.791568-0.453522q-0.575624 14.687131-0.27909 29.426591c10.814752-0.139545 21.66439-0.174431 32.479141-0.104659-0.488408-22.676092-0.104659-45.561502-0.209318-68.324811q-12.018329-0.156988-24.001771 0c0-8.111064 0-16.187241-0.174432-24.245975h24.21109c-0.139545-21.629503 0-43.241564-0.139546-64.853624h-62.934877c0 6.977259 0.104659 13.849859 0.139545 20.739903h-23.164501c0-6.977259 0-13.954518-0.139545-20.931778-23.112171 0.366306-46.259228 0.122102-69.388842 0-0.226761 13.814973-0.313977 27.612503-0.523295 41.375147 8.14595 0.087216 16.2919-0.139545 24.420407-0.540738l-0.732612-18.594395 19.187463-0.279091v38.130722c-22.88541-0.104659-45.805706-0.104659-68.691117 0.139545-0.348863-20.042177 0-40.11924-0.139545-60.213747Q330.992759 0.296534 156.857813 0.139545C156.56128 7.448224 156.421734 15.001107 156.282189 22.309786c108.339392 0.488408 216.818329 0 325.244937 0-0.348863 20.530585-0.209318 41.06117-0.104659 61.644085 39.909922 0.139545 79.819845-0.348863 119.729767 0-0.244204-11.948556-0.209318-23.87967-0.104658-35.810783 7.709871 0.139545 15.454629 0.174431 23.181943 0.174432 0 5.616694-0.174431 11.233387-0.27909 16.884967l17.23383-0.174431v24.141316c-10.343787 0.139545-20.67013 0.174431-30.996474 0-0.348863 39.491287 0.139545 79.01746-0.174431 118.473861h53.236487c-0.697726 16.536104-0.418636 431.54348-0.418635 550.872055z m4.081696-712.099071c-8.337825 0.244204-16.710536 0-25.065803-0.38375q0.418636-11.948556 0.27909-23.914555c8.250609 0 16.553547 0.104659 24.821599 0-0.034886 8.14595-0.069773 16.222128-0.034886 24.298305z m0 930.871033v24.228532h-24.821599q0.156988-11.948556-0.279091-23.914556c8.390154-0.383749 16.762865-0.558181 25.10069-0.313976z" fill="#EF5350" p-id="5595"></path></svg>