<?xml version="1.0" standalone="no"?><!DOCTYPE svg PUBLIC "-//W3C//DTD SVG 1.1//EN" "http://www.w3.org/Graphics/SVG/1.1/DTD/svg11.dtd"><svg t="1561434791170" class="icon" viewBox="0 0 1024 1024" version="1.1" xmlns="http://www.w3.org/2000/svg" p-id="6144" width="48" height="48" xmlns:xlink="http://www.w3.org/1999/xlink"><defs><style type="text/css"></style></defs><path d="M756.56 910.43c-84.98 0-153.87-68.89-153.87-153.87v-153.87h153.87c84.98 0 153.87 68.89 153.87 153.87s-68.89 153.87-153.87 153.87z" fill="#7CC3AC" p-id="6145"></path><path d="M910.43 756.558c0 84.98-68.89 153.87-153.87 153.87-51.826 0-97.632-25.648-125.512-64.916 25.12 17.836 55.8 28.358 88.954 28.358 84.98 0 153.87-68.89 153.87-153.87 0-33.154-10.522-63.832-28.358-88.954 39.266 27.882 64.916 73.688 64.916 125.512z" fill="#61AE9F" p-id="6146"></path><path d="M771.558 756.56a15 15 0 0 1-15 15h-2a15 15 0 0 1 0-30h2a15 15 0 0 1 15 15z m36-15h-2a15 15 0 0 0 0 30h2a15 15 0 0 0 0-30z m-100 0h-2a15 15 0 0 0 0 30h2a15 15 0 0 0 0-30z" fill="#4A7273" p-id="6147"></path><path d="M813.344 516.564H602.688V305.908c0-116.342 94.314-210.656 210.656-210.656C929.686 95.252 1024 189.566 1024 305.908c0 116.342-94.314 210.656-210.656 210.656z" fill="#FFECA1" p-id="6148"></path><path d="M1024 305.908c0 66.93-31.218 126.562-79.882 165.148 28.488-35.928 45.508-81.36 45.508-130.774 0-116.342-94.314-210.656-210.656-210.656-49.412 0-94.846 17.02-130.774 45.508 38.586-48.664 98.218-79.882 165.148-79.882C929.686 95.252 1024 189.566 1024 305.908z" fill="#FFD178" p-id="6149"></path><path d="M727.688 275.908a15 15 0 0 1 15-15H884a15 15 0 0 1 0 30h-141.312a15 15 0 0 1-15-15z m156.312 45h-141.312a15 15 0 0 0 0 30H884a15 15 0 0 0 0-30zM305.908 1024c-116.342 0-210.656-94.314-210.656-210.656 0-116.342 94.314-210.656 210.656-210.656h210.656v210.656c0 116.342-94.314 210.656-210.656 210.656z" fill="#FFB05F" p-id="6150"></path><path d="M516.564 602.688v210.656c0 116.342-94.314 210.656-210.656 210.656-7.43 0-14.77-0.39-22-1.14 106.002-11.002 188.654-100.604 188.654-209.514V602.688h44.002z" fill="#FF904E" p-id="6151"></path><path d="M220.252 783.344a15 15 0 0 1 15-15h141.312a15 15 0 0 1 0 30h-141.312a15 15 0 0 1-15-15z m156.312 45h-141.312a15 15 0 0 0 0 30h141.312a15 15 0 0 0 0-30z" fill="#FF733D" p-id="6152"></path><path d="M516.564 516.564H258.282C115.636 516.564 0 400.928 0 258.282S115.636 0 258.282 0s258.282 115.636 258.282 258.282v258.282z" fill="#FE5E47" p-id="6153"></path><path d="M516.564 258.282v258.282h-44.002V258.282c0-135.232-103.936-246.172-236.28-257.34 7.254-0.612 14.588-0.942 22-0.942 142.646 0 258.282 115.636 258.282 258.282z" fill="#F53737" p-id="6154"></path><path d="M123.282 198.282a15 15 0 0 1 15-15h240a15 15 0 0 1 0 30h-240a15 15 0 0 1-15-15z m255 45h-240a15 15 0 0 0 0 30h240a15 15 0 0 0 0-30z m0 60h-240a15 15 0 0 0 0 30h240a15 15 0 0 0 0-30z" fill="#DB3131" p-id="6155"></path></svg>