<?xml version="1.0" standalone="no"?><!DOCTYPE svg PUBLIC "-//W3C//DTD SVG 1.1//EN" "http://www.w3.org/Graphics/SVG/1.1/DTD/svg11.dtd"><svg t="1560840283185" class="icon" style="" viewBox="0 0 1024 1024" version="1.1" xmlns="http://www.w3.org/2000/svg" p-id="2964" xmlns:xlink="http://www.w3.org/1999/xlink" width="16" height="16"><defs><style type="text/css"></style></defs><path fill="#666666" d="M512 895.981325c212.066907 0 383.981325-171.914418 383.981325-383.981325S724.066907 128.018675 512 128.018675 128.018675 299.93207 128.018675 512s171.914418 383.981325 383.981325 383.981325z m0 63.996546c-247.411903 0-447.978894-200.566992-447.978894-447.978894S264.588097 64.021106 512 64.021106 959.977871 264.588097 959.977871 512 759.411903 959.977871 512 959.977871z m0-223.988424c-26.508747 0-47.998177-21.48943-47.998177-47.998177s21.48943-47.997154 47.998177-47.997154 47.998177 21.48943 47.998177 47.997154c-0.001023 26.508747-21.48943 47.998177-47.998177 47.998177z m-15.649422-415.980109h31.298844c17.672498 0 31.998785 14.326287 31.998785 31.998784 0 0.606821-0.017396 1.213641-0.052189 1.820462l-12.760628 223.989447c-0.964978 16.937764-14.981203 30.178323-31.946597 30.178323h-5.802146c-16.966417 0-30.983665-13.242606-31.946596-30.182416l-12.736069-223.989447c-1.003863-17.643845 12.486382-32.760125 30.130228-33.763988 0.604774-0.033769 1.210571-0.051165 1.816368-0.051165z" p-id="2965"></path></svg>
