<?xml version="1.0" standalone="no"?><!DOCTYPE svg PUBLIC "-//W3C//DTD SVG 1.1//EN" "http://www.w3.org/Graphics/SVG/1.1/DTD/svg11.dtd"><svg t="1560839712960" class="icon" style="" viewBox="0 0 1024 1024" version="1.1" xmlns="http://www.w3.org/2000/svg" p-id="2964" xmlns:xlink="http://www.w3.org/1999/xlink" width="16" height="16"><defs><style type="text/css"></style></defs><path fill="#666666" d="M607.995331 639.531582h31.998785c17.672498 0 31.998785 14.326287 31.998785 31.998784v31.998785c0 17.672498-14.326287 31.998785-31.998785 31.998785h-31.998785c-17.672498 0-31.998785-14.326287-31.998785-31.998785v-31.998785c0-17.671475 14.326287-31.998785 31.998785-31.998784z m-223.989447 0h31.998785c17.672498 0 31.998785 14.326287 31.998785 31.998784v31.998785c0 17.672498-14.326287 31.998785-31.998785 31.998785h-31.998785c-17.672498 0-31.998785-14.326287-31.998785-31.998785v-31.998785c0-17.671475 14.326287-31.998785 31.998785-31.998784z m223.989447-191.990663h31.998785c17.672498 0 31.998785 14.326287 31.998785 31.998785v31.998785c0 17.672498-14.326287 31.998785-31.998785 31.998785h-31.998785c-17.672498 0-31.998785-14.326287-31.998785-31.998785v-31.998785c0-17.672498 14.326287-31.998785 31.998785-31.998785z m-223.989447 0h31.998785c17.672498 0 31.998785 14.326287 31.998785 31.998785v31.998785c0 17.672498-14.326287 31.998785-31.998785 31.998785h-31.998785c-17.672498 0-31.998785-14.326287-31.998785-31.998785v-31.998785c0-17.672498 14.326287-31.998785 31.998785-31.998785z m223.989447-191.990662h31.998785c17.672498 0 31.998785 14.326287 31.998785 31.998785v31.998785c0 17.672498-14.326287 31.998785-31.998785 31.998784h-31.998785c-17.672498 0-31.998785-14.326287-31.998785-31.998784v-31.998785c0-17.672498 14.326287-31.998785 31.998785-31.998785z m-223.989447 0h31.998785c17.672498 0 31.998785 14.326287 31.998785 31.998785v31.998785c0 17.672498-14.326287 31.998785-31.998785 31.998784h-31.998785c-17.672498 0-31.998785-14.326287-31.998785-31.998784v-31.998785c0-17.672498 14.326287-31.998785 31.998785-31.998785z m415.980109 639.969557V159.554926c0-17.672498-14.326287-31.998785-31.998784-31.998785H256.011768c-17.672498 0-31.998785 14.326287-31.998785 31.998785v735.964888h575.97301z m63.996547 0h95.995331c17.672498 0 31.998785 14.326287 31.998785 31.998784s-14.326287 31.998785-31.998785 31.998785H64.021106c-17.672498 0-31.998785-14.326287-31.998785-31.998785s14.326287-31.998785 31.998785-31.998784h95.995331V159.554926c0-53.016471 42.97886-95.995331 95.995331-95.995331h511.975441c53.016471 0 95.995331 42.97886 95.995331 95.995331v735.964888z" p-id="2965"></path></svg>
