<?xml version="1.0" standalone="no"?><!DOCTYPE svg PUBLIC "-//W3C//DTD SVG 1.1//EN" "http://www.w3.org/Graphics/SVG/1.1/DTD/svg11.dtd"><svg t="1560839993243" class="icon" style="" viewBox="0 0 1024 1024" version="1.1" xmlns="http://www.w3.org/2000/svg" p-id="9518" xmlns:xlink="http://www.w3.org/1999/xlink" width="16" height="16"><defs><style type="text/css"></style></defs><path fill="#666666" d="M697.991018 472.012264l-86.853113 150.434197a31.999808 31.999808 0 0 1-17.392113 14.289448l-117.236098 39.942711L742.331899 830.14999l-24.026206-121.500215a32.001855 32.001855 0 0 1 3.678786-22.206767l86.853113-150.434198-110.846574-63.996546z m166.268838 95.995331l-80.84119 140.021034 35.373649 178.884156c5.333472 26.969235-23.581068 47.664579-47.38931 33.918507l-166.268838-95.995331-79.995939 138.557706c-8.836249 15.304568-28.405957 20.547988-43.710524 11.712763-15.304568-8.836249-20.547988-28.405957-11.712763-43.710524l79.995939-138.557706-166.268838-95.995331c-23.808242-13.746072-20.343327-49.134047 5.67935-57.999972l172.605149-58.806338 80.84119-140.021034-55.423287-31.998784c-15.304568-8.836249-20.547988-28.405957-11.712763-43.710525 8.836249-15.304568 28.405957-20.547988 43.710525-11.711739l332.537675 191.990662c15.304568 8.836249 20.547988 28.405957 11.712763 43.710525-8.836249 15.304568-28.405957 20.547988-43.710524 11.712762l-55.422264-32.000831zM696.28312 108.59837v-31.998785c0-17.672498 14.326287-31.998785 31.998785-31.998784s31.998785 14.326287 31.998785 31.998784v31.998785h95.995331c53.016471 0 95.995331 42.97886 95.995331 95.995331V332.587817c0 17.672498-14.326287 31.998785-31.998785 31.998785s-31.998785-14.326287-31.998785-31.998785V204.593701c0-17.672498-14.326287-31.998785-31.998784-31.998784H760.279666v31.998784c0 17.672498-14.326287 31.998785-31.998784 31.998785s-31.998785-14.326287-31.998785-31.998785v-31.998784H312.300772v31.998784c0 17.672498-14.326287 31.998785-31.998785 31.998785s-31.998785-14.326287-31.998785-31.998785v-31.998784h-95.995331c-17.672498 0-31.998785 14.326287-31.998785 31.998784v639.969557c0 17.672498 14.326287 31.998785 31.998785 31.998785h95.995331c17.672498 0 31.998785 14.326287 31.998785 31.998785s-14.326287 31.998785-31.998785 31.998785h-95.995331c-53.016471 0-95.995331-42.97886-95.995331-95.995332V204.593701c0-53.016471 42.97886-95.995331 95.995331-95.995331h95.995331v-31.998785c0-17.672498 14.326287-31.998785 31.998785-31.998784s31.998785 14.326287 31.998785 31.998784v31.998785h383.982348z" p-id="9519"></path></svg>
