<?xml version="1.0" standalone="no"?><!DOCTYPE svg PUBLIC "-//W3C//DTD SVG 1.1//EN" "http://www.w3.org/Graphics/SVG/1.1/DTD/svg11.dtd"><svg t="1560840047251" class="icon" style="" viewBox="0 0 1024 1024" version="1.1" xmlns="http://www.w3.org/2000/svg" p-id="9718" xmlns:xlink="http://www.w3.org/1999/xlink" width="16" height="16"><defs><style type="text/css"></style></defs><path d="M384 352c0-41.6-25.6-76.8-64-89.6V96c0-19.2-12.8-32-32-32s-32 12.8-32 32v166.4c-38.4 12.8-64 48-64 89.6s25.6 76.8 64 89.6v137.6c-38.4 12.8-64 48-64 89.6s25.6 76.8 64 89.6V928c0 19.2 12.8 32 32 32s32-12.8 32-32V761.6c38.4-12.8 64-48 64-89.6s-25.6-76.8-64-89.6V444.8c38.4-16 64-51.2 64-92.8z m-96 352c-19.2 0-32-12.8-32-32s12.8-32 32-32 32 12.8 32 32-12.8 32-32 32z m0-320c-19.2 0-32-12.8-32-32s12.8-32 32-32 32 12.8 32 32-12.8 32-32 32z m448 320H480c-16 0-32 12.8-32 32s12.8 32 32 32h256c16 0 32-12.8 32-32s-12.8-32-32-32z m64-448H480c-16 0-32 12.8-32 32s12.8 32 32 32h320c16 0 32-12.8 32-32s-12.8-32-32-32z m-64 192c16 0 32-12.8 32-32s-12.8-32-32-32H480c-16 0-32 12.8-32 32s12.8 32 32 32h256z m64 128H480c-16 0-32 12.8-32 32s12.8 32 32 32h320c16 0 32-12.8 32-32s-12.8-32-32-32z" fill="#666666" p-id="9719"></path></svg>
