<?xml version="1.0" standalone="no"?><!DOCTYPE svg PUBLIC "-//W3C//DTD SVG 1.1//EN" "http://www.w3.org/Graphics/SVG/1.1/DTD/svg11.dtd"><svg t="1561016578348" class="icon" viewBox="0 0 1024 1024" version="1.1" xmlns="http://www.w3.org/2000/svg" p-id="3323" width="32" height="32" xmlns:xlink="http://www.w3.org/1999/xlink"><defs><style type="text/css"></style></defs><path d="M579.99872 135.77216h-1.01376v231.20896h391.9872V304.64512c0.04608-1.02912 0.3072-1.9968 0.3072-3.03616V145.8432c0-1.03936-0.26112-2.00704-0.3072-3.03616v-7.04h-0.71168c-4.93056-34.39616-34.22208-60.92288-69.98016-60.92288h-250.30144c-35.75808 0.00512-65.0496 26.53184-69.98016 60.928z" fill="#764B8A" p-id="3324"></path><path d="M970.26048 866.98496h1.01376V362.71104h-391.9872v67.75296c-0.04608 1.11616-0.3072 2.17088-0.3072 3.29728v422.272c0 1.13152 0.26112 2.18112 0.3072 3.29728v7.64928h0.71168c4.93056 37.38624 34.22208 66.21696 69.98016 66.21696h250.30144c35.75808 0.00512 65.0496-28.8256 69.98016-66.21184z" fill="#9273A0" p-id="3325"></path><path d="M579.99872 872.28416h-1.01376v-226.3552h391.9872v62.33088c0.04608 1.02912 0.3072 1.9968 0.3072 3.03616V862.208c0 1.03936-0.26112 2.00704-0.3072 3.03616v7.04h-0.71168c-4.93056 34.39616-34.22208 60.92288-69.98016 60.92288h-250.30144c-35.75808-0.00512-65.0496-26.53184-69.98016-60.92288z" fill="#AB97B4" p-id="3326"></path><path d="M313.2928 135.77216h-1.01376v231.20896h391.9872V304.64512c0.04608-1.02912 0.3072-1.9968 0.3072-3.03616V145.8432c0-1.03936-0.26112-2.00704-0.3072-3.03616v-7.04h-0.71168c-4.93056-34.39616-34.22208-60.92288-69.98016-60.92288H383.27296c-35.75808 0.00512-65.0496 26.53184-69.98016 60.928z" fill="#E85E5E" p-id="3327"></path><path d="M703.55456 866.98496h1.01376V362.71104h-391.9872v67.75296c-0.04608 1.11616-0.3072 2.17088-0.3072 3.29728v422.272c0 1.13152 0.26112 2.18112 0.3072 3.29728v7.64928h0.71168c4.93056 37.38624 34.22208 66.21696 69.98016 66.21696h250.30144c35.75808 0.00512 65.0496-28.8256 69.98016-66.21184z" fill="#EC8080" p-id="3328"></path><path d="M313.2928 872.28416h-1.01376v-226.3552h391.9872v62.33088c0.04608 1.02912 0.3072 1.9968 0.3072 3.03616V862.208c0 1.03936-0.26112 2.00704-0.3072 3.03616v7.04h-0.71168c-4.93056 34.39616-34.22208 60.92288-69.98016 60.92288H383.27296c-35.75808-0.00512-65.0496-26.53184-69.98016-60.92288z" fill="#E9C0C0" p-id="3329"></path><path d="M48.01536 135.77216h-1.01888v231.20896h391.9872V304.64512c0.04608-1.02912 0.3072-1.9968 0.3072-3.03616V145.8432c0-1.03936-0.26112-2.00704-0.3072-3.03616v-7.04H438.272c-4.93056-34.39616-34.22208-60.92288-69.98016-60.92288H117.99552c-35.75808 0.00512-65.0496 26.53184-69.98016 60.928z" fill="#3FAC95" p-id="3330"></path><path d="M438.27712 866.98496h1.01376V362.71104H47.30368v67.75296c-0.04608 1.11616-0.3072 2.17088-0.3072 3.29728v422.272c0 1.13152 0.26112 2.18112 0.3072 3.29728v7.64928h0.71168c4.93056 37.38624 34.22208 66.21696 69.98016 66.21696h250.30144c35.75808 0.00512 65.0496-28.8256 69.98016-66.21184z" fill="#8EDDCC" p-id="3331"></path><path d="M48.01536 872.28416h-1.01888v-226.3552h391.9872v62.33088c0.04608 1.02912 0.3072 1.9968 0.3072 3.03616V862.208c0 1.03936-0.26112 2.00704-0.3072 3.03616v7.04H438.272c-4.93056 34.39616-34.22208 60.92288-69.98016 60.92288H117.99552c-35.75808-0.00512-65.0496-26.53184-69.98016-60.92288z" fill="#A9EEDF" p-id="3332"></path><path d="M246.74816 172.73856m-41.35936 0a41.35936 41.35936 0 1 0 82.71872 0 41.35936 41.35936 0 1 0-82.71872 0Z" fill="#FFFFFF" p-id="3333"></path><path d="M507.7504 172.73856m-41.35936 0a41.35936 41.35936 0 1 0 82.71872 0 41.35936 41.35936 0 1 0-82.71872 0Z" fill="#FFFFFF" p-id="3334"></path><path d="M764.47232 172.73856m-41.35936 0a41.35936 41.35936 0 1 0 82.71872 0 41.35936 41.35936 0 1 0-82.71872 0Z" fill="#FFFFFF" p-id="3335"></path></svg>